# Wavefront OBJ exported by MilkShape 3D

mtllib TargetArm.mtl

v -1.530212 -0.635427 0.487912
v -1.530212 -0.127431 0.995916
v -1.530212 0.761546 0.995916
v -1.530212 -0.635427 -0.528086
v -1.530212 -0.127431 -1.036090
v -1.530212 0.761546 -1.036090
v -0.514206 1.650554 -0.510073
v -0.514206 1.650554 -1.036090
v -0.684555 1.501506 -0.411731
v -0.684555 1.501506 0.371549
v -0.514206 1.650554 0.469892
v -0.514206 1.650554 0.995916
v -0.006210 1.650554 0.763189
v 0.501785 1.650554 0.995916
v 0.501785 1.650554 0.469892
v 0.672134 1.501506 0.371549
v 1.517792 0.761546 0.995916
v 0.672134 1.501506 -0.411731
v 1.517792 0.761546 -1.036090
v 0.501785 1.650554 -0.510073
v 0.501785 1.650554 -1.036090
v 1.517792 -0.127431 -1.036090
v 1.517792 -0.127431 0.995916
v 1.517792 -0.635427 -0.528086
v 1.517792 -0.635427 0.487912
v 0.882782 -0.635427 -0.528086
v 0.882782 -0.635427 0.487912
v 0.882782 0.888560 -1.036090
v 0.882782 -0.127431 -1.036090
v 0.882782 0.380565 -0.528086
v 0.882782 0.380565 0.487912
v 0.882782 0.888560 0.995916
v 0.882782 -0.127431 0.995916
v -0.895218 0.380565 -0.528086
v -0.895218 0.380565 0.487912
v -0.895218 0.888560 0.995916
v -0.895218 -0.127431 0.995916
v -0.895218 -0.635427 0.487912
v -0.895218 -0.635427 -0.528086
v -0.895218 0.888560 -1.036090
v -0.895218 -0.127431 -1.036090
v -0.006210 21.650553 0.763189
v -0.684555 21.650553 0.371549
v -0.684555 21.650553 -0.411731
v 0.672134 21.650553 -0.411731
v 0.672134 21.650553 0.371549
# 46 vertices

vt 0.000000 0.000000
vt 0.000000 0.022794
vt 0.000000 0.062684
vt 0.333335 0.102575
vt 0.277446 0.095887
vt 0.500000 0.102575
vt 0.666665 0.102575
vt 0.722554 0.095887
vt 1.000000 0.062684
vt 1.000000 0.022794
vt 1.000000 0.000000
vt 0.791664 0.000000
vt 0.791664 0.068383
vt 0.791664 0.022794
vt 0.791664 0.045589
vt 0.208331 0.045589
vt 0.208331 0.068383
vt 0.208331 0.022794
vt 0.208331 0.000000
vt 0.500000 1.000000
vt 0.277446 1.000000
vt 0.722554 1.000000
# 22 texture coordinates

vn -0.731306 -0.588512 0.344738
vn -0.475964 -0.336560 0.812518
vn -0.798222 0.362209 0.481296
vn -0.336556 -0.911096 -0.237980
vn -0.630263 -0.297111 -0.717282
vn -0.702293 0.532874 -0.472049
vn -0.658486 0.752593 0.000000
vn -0.588975 0.673131 -0.447217
vn -0.869557 0.493833 -0.000002
vn -0.820859 0.533243 0.204555
vn -0.615280 0.547174 0.567479
vn -0.190013 0.794259 0.577103
vn 0.124999 0.750001 0.649518
vn 0.274488 0.730549 0.625263
vn 0.558366 0.590058 0.583146
vn 0.879791 0.443828 0.170249
vn 0.796666 0.452431 0.400787
vn 0.796634 0.604462 -0.000009
vn 0.621096 0.471270 -0.626214
vn 0.658501 0.752580 -0.000016
vn 0.465634 0.532152 -0.707107
vn 0.851455 -0.200691 -0.484507
vn 0.630263 -0.297111 0.717282
vn 0.581522 -0.701962 -0.411195
vn 0.336556 -0.911096 0.237980
vn -0.731306 -0.659909 -0.172369
vn -0.447214 0.000000 -0.894427
vn -0.475964 -0.336560 -0.812518
vn -0.948683 -0.316228 0.000000
vn -0.731306 -0.659909 0.172369
vn -0.336557 -0.237984 0.911094
vn 0.832050 -0.554700 0.000000
vn 0.731306 -0.588512 0.344738
vn 0.205599 -0.145382 0.967777
vn 0.475964 -0.336560 0.812518
vn 0.731306 -0.659909 0.172369
vn 0.731306 -0.588512 -0.344738
vn 0.554700 0.000000 -0.832050
vn 0.475964 -0.336560 -0.812518
vn -0.188985 -0.000000 0.981980
vn -0.866021 -0.000000 0.500008
vn -1.000000 0.000000 0.000000
vn 1.000000 0.000000 0.000000
vn 0.693369 -0.000000 0.720582
# 44 normals

g TargetArm
usemtl Material01
s 1
f 1/1/1 2/2/2 3/3/3
f 4/1/4 1/1/1 5/2/5
f 5/2/5 1/1/1 3/3/3
f 5/2/5 3/3/3 6/3/6
f 7/4/7 8/4/8 9/5/9
f 9/5/9 8/4/8 6/3/6
f 9/5/9 6/3/6 10/5/10
f 10/5/10 6/3/6 3/3/3
f 10/5/10 3/3/3 11/4/11
f 11/4/11 3/3/3 12/4/12
f 11/4/11 12/4/12 13/6/13
f 13/6/13 12/4/12 14/7/14
f 13/6/13 14/7/14 15/7/15
f 15/7/15 14/7/14 16/8/16
f 16/8/16 14/7/14 17/9/17
f 16/8/16 17/9/17 18/8/18
f 18/8/18 17/9/17 19/9/19
f 18/8/18 19/9/19 20/7/20
f 20/7/20 19/9/19 21/7/21
f 19/9/19 17/9/17 22/10/22
f 22/10/22 17/9/17 23/10/23
f 22/10/22 23/10/23 24/11/24
f 24/11/24 23/10/23 25/11/25
f 24/11/24 25/11/25 26/12/26
f 26/12/26 25/11/25 27/12/1
f 28/13/27 29/14/28 30/15/29
f 30/15/29 29/14/28 26/12/26
f 30/15/29 26/12/26 31/15/30
f 31/15/30 26/12/26 27/12/1
f 31/15/30 27/12/1 32/13/31
f 32/13/31 27/12/1 33/14/2
f 30/15/29 31/15/30 34/16/32
f 34/16/32 31/15/30 35/16/33
f 36/17/34 37/18/35 35/16/33
f 35/16/33 37/18/35 38/19/36
f 35/16/33 38/19/36 34/16/32
f 34/16/32 38/19/36 39/19/37
f 34/16/32 39/19/37 40/17/38
f 40/17/38 39/19/37 41/18/39
f 39/19/37 38/19/36 4/1/4
f 4/1/4 38/19/36 1/1/1
f 40/17/38 41/18/39 5/2/5
f 22/10/22 29/14/28 19/9/19
f 19/9/19 29/14/28 28/13/27
f 5/2/5 6/3/6 40/17/38
f 40/17/38 6/3/6 8/4/8
f 28/13/27 21/7/21 19/9/19
f 32/13/31 33/14/2 23/10/23
f 2/2/2 37/18/35 3/3/3
f 3/3/3 37/18/35 36/17/34
f 23/10/23 17/9/17 32/13/31
f 32/13/31 17/9/17 14/7/14
f 32/13/31 14/7/14 36/17/34
f 36/17/34 14/7/14 12/4/12
f 36/17/34 12/4/12 3/3/3
f 31/15/30 32/13/31 35/16/33
f 35/16/33 32/13/31 36/17/34
f 41/18/39 39/19/37 5/2/5
f 5/2/5 39/19/37 4/1/4
f 22/10/22 24/11/24 29/14/28
f 29/14/28 24/11/24 26/12/26
f 25/11/25 23/10/23 27/12/1
f 27/12/1 23/10/23 33/14/2
f 38/19/36 37/18/35 1/1/1
f 1/1/1 37/18/35 2/2/2
f 13/6/13 42/20/40 11/4/11
f 11/4/11 42/20/40 43/21/41
f 11/4/11 43/21/41 10/5/10
f 10/5/10 43/21/41 9/5/9
f 9/5/9 43/21/41 44/21/42
f 18/8/18 45/22/43 16/8/16
f 16/8/16 45/22/43 46/22/44
f 42/20/40 13/6/13 46/22/44
f 46/22/44 13/6/13 15/7/15
f 46/22/44 15/7/15 16/8/16
# 75 triangles in group

# 75 triangles total

