# Wavefront OBJ exported by MilkShape 3D

mtllib Cone.mtl

v 0.493474 0.966214 -0.004199
v 0.428081 0.966214 0.239850
v 0.005375 0.002517 -0.004200
v 0.249424 0.966214 0.418506
v 0.005375 0.966214 0.483899
v -0.238674 0.966214 0.418506
v -0.417331 0.966214 0.239850
v -0.482724 0.966214 -0.004200
v -0.417331 0.966214 -0.248249
v -0.238674 0.966214 -0.426905
v 0.005375 0.966214 -0.492298
v 0.249424 0.966214 -0.426905
v 0.428081 0.966214 -0.248249
# 13 vertices

vt 1.000000 0.500000
vt 0.933013 0.250000
vt 0.500000 0.500000
vt 0.750000 0.066987
vt 0.500000 0.000000
vt 0.250000 0.066987
vt 0.066987 0.250000
vt 0.000000 0.500000
vt 0.066987 0.750000
vt 0.250000 0.933013
vt 0.500000 1.000000
vt 0.750000 0.933013
vt 0.933013 0.750000
# 13 texture coordinates

vn 0.892101 -0.451836 0.000000
vn 0.772582 -0.451836 0.446050
vn 0.000000 -1.000000 -0.000000
vn 0.446051 -0.451836 0.772582
vn -0.000000 -0.451836 0.892101
vn -0.446050 -0.451836 0.772582
vn -0.772582 -0.451836 0.446050
vn -0.892101 -0.451836 -0.000000
vn -0.772582 -0.451836 -0.446051
vn -0.446050 -0.451836 -0.772582
vn 0.000000 -0.451836 -0.892101
vn 0.446050 -0.451836 -0.772582
vn 0.772582 -0.451836 -0.446051
# 13 normals

g Spindle01
usemtl Material01
s 1
f 1/1/1 2/2/2 3/3/3
f 2/2/2 4/4/4 3/3/3
f 4/4/4 5/5/5 3/3/3
f 5/5/5 6/6/6 3/3/3
f 6/6/6 7/7/7 3/3/3
f 7/7/7 8/8/8 3/3/3
f 8/8/8 9/9/9 3/3/3
f 9/9/9 10/10/10 3/3/3
f 10/10/10 11/11/11 3/3/3
f 11/11/11 12/12/12 3/3/3
f 12/12/12 13/13/13 3/3/3
f 13/13/13 1/1/1 3/3/3
# 12 triangles in group

# 12 triangles total

